<?xml version="1.0" encoding="UTF-8"?>
<!DOCTYPE svg PUBLIC "-//W3C//DTD SVG 1.1//EN" "http://www.w3.org/Graphics/SVG/1.1/DTD/svg11.dtd">
<!-- Creator: CorelDRAW SE -->
<svg xmlns="http://www.w3.org/2000/svg" xml:space="preserve" width="87.2082mm" height="76.9684mm" version="1.1" style="shape-rendering:geometricPrecision; text-rendering:geometricPrecision; image-rendering:optimizeQuality; fill-rule:evenodd; clip-rule:evenodd"
viewBox="0 0 6198 5470"
 xmlns:xlink="http://www.w3.org/1999/xlink">
 <defs>
  <style type="text/css">
   <![CDATA[
    .fil0 {fill:black}
    .fil1 {fill:#DD0000}
    .fil2 {fill:#FFCE00}
   ]]>
  </style>
 </defs>
 <g id="Layer_x0020_1">
  <metadata id="CorelCorpID_0Corel-Layer"/>
  <g id="_653428408">
   <path class="fil0" d="M0 1512c0,159 67,220 198,286l2377 1267c121,66 406,245 524,245 137,0 713,-350 904,-447l302 -158c68,-41 130,-66 196,-106l1391 -740c46,-23 198,-106 233,-142 60,-63 73,-120 73,-205 0,-178 -160,-224 -286,-283l-795 -355c-313,-150 -684,-297 -997,-444 -67,-31 -138,-66 -199,-91l-394 -175c-70,-34 -132,-55 -202,-89 -260,-125 -265,-93 -646,85 -70,33 -128,58 -201,89l-2184 976c-128,55 -294,112 -294,287z"/>
   <path class="fil1" d="M0 2638c0,217 152,265 387,387 35,18 67,32 105,52l197 106c127,74 265,135 394,212 34,21 59,32 95,50 209,103 485,267 694,371 285,141 606,331 884,472 266,135 306,213 574,57l1581 -840c38,-20 52,-32 93,-52 264,-132 529,-289 791,-420 42,-21 63,-37 100,-57 174,-90 303,-125 303,-338 0,-134 -166,-366 -462,-184 -156,95 -677,358 -878,466l-354 190c-113,66 -227,121 -348,185l-528 283c-39,19 -49,29 -85,48l-444 229c-27,0 -293,-153 -347,-180l-876 -468c-59,-34 -123,-63 -182,-97 -173,-100 -548,-278 -704,-373 -127,-77 -401,-206 -520,-279 -310,-189 -470,47 -470,180z"/>
   <path class="fil2" d="M0 3655c0,104 11,189 116,259l687 366c221,112 468,259 694,371l1183 633c90,53 335,186 419,186 83,0 330,-133 419,-186 129,-78 266,-139 393,-213l197 -105c36,-20 60,-30 97,-48l496 -267c279,-138 610,-335 884,-472 38,-19 70,-33 104,-53l393 -212c70,-47 108,-119 116,-194l0 -61c-13,-122 -107,-234 -278,-234 -105,0 -560,270 -714,351l-705 373c-111,67 -237,119 -348,184l-606 326c-30,16 -55,27 -89,45 -51,25 -329,185 -359,185 -36,0 -1646,-876 -1836,-972l-609 -323c-165,-82 -396,-277 -579,-94 -28,27 -75,105 -75,155z"/>
  </g>
 </g>
</svg>
