<?xml version="1.0" encoding="UTF-8"?>
<!DOCTYPE svg PUBLIC "-//W3C//DTD SVG 1.1//EN" "http://www.w3.org/Graphics/SVG/1.1/DTD/svg11.dtd">
<!-- Creator: CorelDRAW SE -->
<svg xmlns="http://www.w3.org/2000/svg" xml:space="preserve" width="297mm" height="210mm" version="1.1" style="shape-rendering:geometricPrecision; text-rendering:geometricPrecision; image-rendering:optimizeQuality; fill-rule:evenodd; clip-rule:evenodd"
viewBox="0 0 29700 21000"
 xmlns:xlink="http://www.w3.org/1999/xlink">
 <defs>
  <style type="text/css">
   <![CDATA[
    .fil0 {fill:black}
    .fil1 {fill:#DD0000}
    .fil2 {fill:#FFCE00}
    .fil3 {fill:#2B2A29;fill-rule:nonzero}
   ]]>
  </style>
 </defs>
 <g id="Layer_x0020_1">
  <metadata id="CorelCorpID_0Corel-Layer"/>
  <g id="_769206824">
   <g>
    <path class="fil0" d="M1359 9548c0,110 45,152 135,197l1633 870c83,45 278,168 360,168 94,0 490,-240 620,-306l208 -109c46,-28 89,-45 135,-73l955 -508c32,-16 136,-73 160,-98 41,-43 50,-82 50,-141 0,-122 -110,-153 -197,-194l-546 -243c-214,-103 -469,-205 -684,-305 -46,-22 -95,-46 -137,-63l-270 -120c-48,-23 -91,-38 -139,-61 -178,-86 -182,-64 -443,58 -49,23 -89,40 -139,61l-1499 670c-88,38 -202,77 -202,197z"/>
    <path class="fil1" d="M1359 10322c0,149 104,181 266,266 24,12 45,21 72,36l135 72c87,51 181,93 270,146 24,14 41,21 66,34 143,70 332,184 476,255 196,96 416,227 607,324 183,93 210,146 394,39l1086 -577c26,-14 36,-22 64,-36 181,-90 363,-198 543,-288 29,-14 43,-25 69,-39 119,-62 208,-86 208,-232 0,-92 -114,-251 -317,-127 -107,66 -466,246 -603,320l-243 131c-78,45 -157,83 -239,127l-363 194c-27,13 -34,20 -58,34l-305 156c-19,0 -202,-105 -238,-123l-602 -321c-41,-24 -85,-43 -125,-67 -119,-69 -376,-191 -483,-256 -87,-53 -276,-142 -358,-192 -213,-130 -322,33 -322,124z"/>
    <path class="fil2" d="M1359 11020c0,72 7,130 79,178l472 251c152,77 321,178 477,255l812 435c62,37 230,128 288,128 57,0 226,-92 287,-128 89,-53 183,-96 270,-146l136 -73c24,-13 41,-20 66,-33l341 -183c192,-94 419,-230 607,-324 26,-13 48,-23 72,-36l270 -146c47,-32 73,-82 79,-133l0 -42c-9,-84 -74,-161 -191,-161 -72,0 -385,186 -491,241l-483 256c-77,47 -163,82 -240,127l-415 224c-21,11 -39,19 -62,30 -35,18 -225,128 -246,128 -25,0 -1130,-602 -1261,-668l-418 -222c-114,-56 -272,-190 -398,-64 -19,19 -51,72 -51,106z"/>
   </g>
   <polygon class="fil3" points="6830,11297 6449,11297 6449,9258 6830,9258 "/>
   <polygon id="1" class="fil3" points="8725,9255 8725,9568 8111,9568 8111,11296 7732,11296 7732,9568 7116,9568 7116,9255 "/>
   <polygon id="2" class="fil3" points="8647,10299 9378,10299 9378,10589 8647,10589 "/>
   <path id="3" class="fil3" d="M10545 10990c74,0 140,-13 197,-37 58,-25 107,-59 147,-103 40,-44 71,-98 92,-160 21,-63 31,-134 31,-212l0 -1220 380 0 0 1221c0,121 -20,233 -59,336 -39,103 -95,192 -168,267 -74,74 -163,133 -267,175 -104,41 -222,63 -353,63 -130,0 -248,-22 -352,-63 -104,-42 -193,-101 -266,-175 -73,-75 -128,-164 -167,-267 -39,-103 -59,-215 -59,-336l0 -1221 379 0 0 1219c0,78 11,148 32,211 21,63 51,117 91,161 39,45 88,79 146,104 58,24 123,37 196,37z"/>
   <path id="4" class="fil3" d="M11758 11297l0 -1447 213 0c45,0 75,21 89,64l23 107c25,-28 52,-54 80,-78 27,-23 57,-44 88,-60 32,-17 66,-31 102,-41 36,-10 76,-14 119,-14 91,0 166,24 225,73 59,50 102,116 132,197 22,-48 50,-89 84,-123 34,-35 71,-62 112,-84 40,-22 83,-38 129,-48 45,-10 91,-15 137,-15 80,0 151,12 213,36 62,25 114,60 157,107 42,47 74,105 96,172 23,68 33,146 33,233l0 921 -348 0 0 -921c0,-92 -20,-162 -61,-208 -40,-47 -99,-70 -177,-70 -36,0 -69,6 -99,19 -31,12 -58,29 -81,52 -23,23 -41,52 -54,87 -14,35 -20,75 -20,120l0 921 -350 0 0 -921c0,-97 -19,-167 -58,-211 -39,-45 -97,-67 -173,-67 -50,0 -96,13 -140,37 -44,25 -85,60 -122,103l0 1059 -349 0z"/>
   <path id="5" class="fil3" d="M14992 10132c-10,15 -19,26 -30,32 -10,6 -23,9 -39,9 -17,0 -35,-5 -54,-14 -20,-9 -42,-20 -68,-32 -25,-12 -54,-22 -86,-32 -32,-9 -71,-14 -115,-14 -69,0 -123,15 -162,44 -40,29 -60,67 -60,114 0,31 11,57 31,78 20,22 47,40 80,56 34,16 71,30 114,43 42,13 85,27 129,42 45,15 88,32 130,51 42,19 80,44 114,73 33,30 60,66 80,107 20,42 30,91 30,150 0,69 -12,133 -38,192 -25,59 -62,109 -111,152 -49,43 -109,76 -181,100 -72,24 -155,37 -248,37 -50,0 -98,-5 -146,-14 -47,-9 -93,-21 -136,-37 -44,-16 -85,-35 -122,-57 -37,-21 -70,-45 -98,-70l80 -134c11,-16 23,-28 37,-37 14,-8 32,-12 54,-12 21,0 42,6 61,18 20,12 42,25 67,39 25,14 56,28 90,40 34,12 77,18 130,18 41,0 77,-5 107,-14 29,-10 54,-23 73,-39 19,-16 33,-35 42,-56 9,-21 14,-43 14,-66 0,-34 -10,-61 -31,-82 -20,-22 -47,-41 -80,-57 -33,-16 -71,-30 -114,-43 -43,-13 -87,-26 -131,-41 -45,-15 -89,-33 -131,-53 -43,-20 -81,-46 -115,-77 -33,-31 -60,-69 -80,-114 -20,-45 -31,-100 -31,-164 0,-59 12,-115 36,-169 23,-53 58,-100 104,-140 45,-40 102,-72 170,-96 68,-24 147,-35 236,-35 100,0 191,16 272,49 82,33 150,76 205,130l-79 125z"/>
   <path id="6" class="fil3" d="M15963 9828c92,0 176,14 252,43 77,30 143,72 198,129 56,56 99,125 130,206 31,82 47,175 47,280 0,26 -1,48 -4,65 -2,18 -6,31 -12,41 -6,10 -15,17 -25,21 -11,5 -24,7 -40,7l-894 0c10,148 50,256 120,325 70,69 162,104 276,104 57,0 106,-7 147,-20 40,-13 76,-27 107,-43 30,-16 57,-31 80,-44 23,-13 45,-19 67,-19 14,0 26,3 37,8 10,6 19,14 26,24l102 128c-39,45 -82,82 -130,113 -48,30 -98,55 -150,73 -52,19 -105,32 -159,39 -54,8 -107,12 -158,12 -100,0 -194,-17 -280,-51 -87,-33 -162,-82 -226,-148 -64,-65 -114,-146 -151,-242 -36,-97 -55,-209 -55,-336 0,-99 16,-191 48,-279 32,-87 78,-162 138,-227 60,-64 132,-115 218,-153 87,-38 183,-56 291,-56zm8 251c-102,0 -181,28 -239,86 -57,57 -94,138 -110,244l655 0c0,-46 -7,-88 -19,-128 -12,-40 -31,-75 -56,-105 -26,-30 -58,-54 -96,-72 -39,-17 -84,-25 -135,-25z"/>
   <path id="7" class="fil3" d="M17348 11320c-125,0 -221,-36 -289,-107 -68,-71 -101,-169 -101,-294l0 -809 -147 0c-19,0 -35,-7 -48,-19 -14,-12 -21,-30 -21,-55l0 -138 233 -38 73 -393c4,-19 13,-34 26,-44 14,-11 31,-16 51,-16l181 0 0 454 381 0 0 249 -381 0 0 784c0,45 11,80 34,105 22,26 52,38 90,38 22,0 40,-2 55,-7 14,-6 27,-11 38,-16 10,-6 20,-12 28,-17 9,-5 17,-7 26,-7 10,0 19,2 25,8 7,5 14,12 21,23l105 170c-51,43 -109,74 -175,96 -66,22 -134,33 -205,33z"/>
   <path id="8" class="fil3" d="M19011 9994c0,24 -4,48 -13,71 -9,23 -20,43 -32,59l-688 906 713 0 0 267 -1118 0 0 -145c0,-16 4,-36 11,-58 8,-22 19,-42 35,-62l694 -915 -699 0 0 -267 1097 0 0 144z"/>
   <path id="9" class="fil3" d="M19607 9850l0 919c0,88 21,156 62,205 41,48 102,72 184,72 60,0 116,-13 169,-40 53,-26 102,-63 149,-109l0 -1047 349 0 0 1447 -213 0c-45,0 -75,-21 -89,-63l-24 -116c-30,30 -61,57 -93,82 -32,25 -66,46 -102,64 -36,17 -75,31 -117,40 -42,10 -87,16 -135,16 -79,0 -149,-14 -209,-41 -61,-27 -112,-64 -153,-113 -42,-49 -73,-107 -94,-175 -21,-67 -32,-141 -32,-221l0 -920 348 0z"/>
   <path id="10" class="fil3" d="M20892 11297l0 -1447 213 0c45,0 75,21 89,64l24 114c29,-30 60,-58 92,-82 33,-24 67,-46 103,-63 37,-18 75,-32 117,-41 41,-10 86,-14 135,-14 79,0 149,13 210,40 61,26 112,64 153,112 41,49 72,107 93,174 21,67 32,141 32,222l0 921 -348 0 0 -921c0,-88 -21,-157 -62,-205 -40,-49 -102,-73 -184,-73 -60,0 -116,14 -169,41 -53,27 -103,65 -150,112l0 1046 -348 0z"/>
   <path id="11" class="fil3" d="M22996 9825c62,0 120,6 175,19 55,13 104,31 149,56l416 0 0 133c0,22 -5,39 -16,52 -12,13 -31,21 -58,26l-130 25c9,24 17,50 22,77 5,26 8,55 8,85 0,71 -14,135 -43,191 -29,58 -68,107 -119,147 -50,40 -110,71 -179,92 -69,22 -144,33 -225,33 -54,0 -108,-5 -159,-15 -45,27 -68,58 -68,93 0,29 14,51 41,65 26,14 62,24 105,29 44,6 93,9 149,9 55,0 112,2 170,7 59,4 116,13 171,25 56,11 105,30 149,56 44,25 79,59 106,103 27,44 40,101 40,170 0,64 -16,126 -47,186 -32,60 -77,114 -137,161 -60,47 -133,86 -219,114 -87,29 -186,43 -297,43 -110,0 -205,-10 -286,-31 -81,-22 -148,-50 -201,-85 -53,-35 -93,-76 -119,-122 -26,-46 -40,-94 -40,-144 0,-67 21,-125 63,-171 41,-46 98,-83 172,-110 -36,-20 -65,-46 -86,-79 -22,-33 -33,-75 -33,-129 0,-21 4,-43 11,-67 8,-23 20,-45 35,-68 16,-23 35,-44 58,-64 24,-21 52,-39 84,-55 -74,-39 -131,-92 -173,-158 -42,-66 -63,-143 -63,-231 0,-72 15,-136 43,-194 29,-58 69,-107 120,-148 52,-41 112,-72 182,-94 70,-21 146,-32 229,-32zm382 1534c0,-30 -8,-53 -25,-71 -17,-19 -40,-33 -69,-43 -29,-10 -63,-18 -102,-23 -39,-4 -81,-7 -124,-7 -44,0 -89,0 -136,0 -46,0 -91,-5 -135,-15 -39,22 -71,47 -95,77 -24,30 -36,64 -36,103 0,25 7,49 20,71 12,22 32,41 60,58 28,15 64,28 108,37 44,9 98,13 162,13 65,0 121,-5 168,-15 47,-10 86,-24 116,-42 31,-17 53,-39 67,-64 14,-24 21,-51 21,-79zm-382 -821c43,0 81,-5 113,-17 32,-12 59,-28 80,-49 21,-20 37,-45 48,-74 11,-29 16,-61 16,-96 0,-71 -21,-128 -64,-169 -43,-42 -107,-63 -193,-63 -85,0 -149,21 -192,63 -43,41 -65,98 -65,169 0,34 6,65 17,94 11,29 27,54 48,76 21,21 48,37 80,49 33,12 70,17 112,17z"/>
   <path id="12" class="fil3" d="M24814 10132c-10,15 -19,26 -30,32 -10,6 -23,9 -39,9 -17,0 -35,-5 -54,-14 -20,-9 -42,-20 -67,-32 -26,-12 -55,-22 -87,-32 -32,-9 -71,-14 -115,-14 -69,0 -123,15 -162,44 -40,29 -60,67 -60,114 0,31 11,57 31,78 20,22 47,40 80,56 34,16 71,30 114,43 42,13 85,27 129,42 45,15 88,32 130,51 42,19 81,44 114,73 33,30 60,66 80,107 20,42 30,91 30,150 0,69 -12,133 -38,192 -25,59 -62,109 -111,152 -49,43 -109,76 -181,100 -72,24 -155,37 -248,37 -50,0 -98,-5 -146,-14 -47,-9 -93,-21 -136,-37 -44,-16 -84,-35 -122,-57 -37,-21 -70,-45 -98,-70l81 -134c10,-16 22,-28 36,-37 14,-8 32,-12 54,-12 21,0 42,6 61,18 20,12 42,25 67,39 25,14 56,28 90,40 34,12 77,18 130,18 41,0 77,-5 107,-14 29,-10 54,-23 73,-39 19,-16 34,-35 42,-56 9,-21 14,-43 14,-66 0,-34 -10,-61 -30,-82 -21,-22 -47,-41 -81,-57 -33,-16 -71,-30 -114,-43 -43,-13 -87,-26 -131,-41 -45,-15 -89,-33 -131,-53 -43,-20 -81,-46 -115,-77 -33,-31 -60,-69 -80,-114 -20,-45 -31,-100 -31,-164 0,-59 12,-115 36,-169 23,-53 58,-100 104,-140 45,-40 102,-72 170,-96 68,-24 147,-35 236,-35 100,0 191,16 272,49 82,33 150,76 205,130l-79 125z"/>
   <path id="13" class="fil3" d="M25188 11297l0 -1447 204 0c36,0 61,7 75,20 14,13 23,36 28,68l21 174c52,-89 113,-160 182,-212 70,-52 148,-78 234,-78 72,0 131,17 178,51l-45 261c-3,16 -9,28 -19,35 -9,7 -22,11 -38,11 -14,0 -33,-3 -58,-10 -24,-6 -56,-10 -97,-10 -72,0 -134,20 -186,60 -52,40 -95,99 -131,176l0 901 -348 0z"/>
   <path id="14" class="fil3" d="M27433 11297l-157 0c-33,0 -59,-5 -77,-15 -19,-10 -33,-30 -43,-60l-31 -103c-36,33 -72,62 -107,87 -36,25 -72,46 -110,63 -38,17 -78,29 -120,38 -42,8 -89,13 -141,13 -61,0 -117,-9 -169,-25 -52,-17 -96,-41 -133,-75 -37,-33 -66,-73 -87,-123 -21,-49 -31,-106 -31,-171 0,-54 14,-108 43,-162 29,-53 76,-101 143,-144 67,-43 156,-79 267,-107 111,-28 248,-42 413,-42l0 -85c0,-98 -20,-171 -61,-217 -41,-47 -101,-71 -179,-71 -56,0 -103,7 -141,20 -38,13 -70,28 -98,44 -27,17 -53,32 -77,45 -23,13 -49,20 -77,20 -24,0 -44,-6 -61,-19 -17,-12 -31,-27 -41,-45l-63 -111c166,-153 367,-230 602,-230 84,0 160,14 226,42 67,27 123,66 169,115 46,50 81,109 105,178 24,68 36,143 36,225l0 915zm-677 -217c35,0 68,-3 98,-10 31,-7 59,-17 86,-30 27,-13 53,-29 78,-49 24,-19 49,-41 75,-68l0 -241c-102,0 -186,7 -255,19 -68,13 -123,30 -164,50 -41,20 -71,43 -88,69 -17,27 -26,56 -26,87 0,62 18,107 54,133 36,27 83,40 142,40z"/>
   <path id="15" class="fil3" d="M28251 11320c-125,0 -222,-36 -290,-107 -67,-71 -101,-169 -101,-294l0 -809 -147 0c-19,0 -35,-7 -48,-19 -14,-12 -21,-30 -21,-55l0 -138 233 -38 73 -393c4,-19 13,-34 26,-44 14,-11 31,-16 52,-16l180 0 0 454 381 0 0 249 -381 0 0 784c0,45 12,80 34,105 23,26 53,38 90,38 22,0 40,-2 55,-7 14,-6 27,-11 38,-16 11,-6 20,-12 29,-17 8,-5 17,-7 25,-7 10,0 19,2 25,8 7,5 14,12 22,23l104 170c-51,43 -109,74 -175,96 -66,22 -134,33 -204,33z"/>
  </g>
 </g>
</svg>
